<mxfile host="app.diagrams.net" modified="2021-12-25T13:27:11.674Z" agent="5.0 (X11)" etag="fvbfVYHGWS717Fd3srNl" version="16.0.0" type="github">
  <diagram id="xcCioDHExj9BQc0sVWNk" name="Page-1">
    <mxGraphModel dx="1564" dy="836" grid="1" gridSize="10" guides="1" tooltips="1" connect="1" arrows="1" fold="1" page="1" pageScale="1" pageWidth="827" pageHeight="1169" math="0" shadow="0">
      <root>
        <mxCell id="0" />
        <mxCell id="1" parent="0" />
        <mxCell id="X465O4fzRtTwufC8qBGV-10" style="edgeStyle=orthogonalEdgeStyle;rounded=0;orthogonalLoop=1;jettySize=auto;html=1;entryX=0.5;entryY=0;entryDx=0;entryDy=0;" edge="1" parent="1" source="X465O4fzRtTwufC8qBGV-1" target="X465O4fzRtTwufC8qBGV-2">
          <mxGeometry relative="1" as="geometry" />
        </mxCell>
        <mxCell id="X465O4fzRtTwufC8qBGV-1" value="Начало" style="ellipse;whiteSpace=wrap;html=1;" vertex="1" parent="1">
          <mxGeometry x="340" y="80" width="120" height="80" as="geometry" />
        </mxCell>
        <mxCell id="X465O4fzRtTwufC8qBGV-11" style="edgeStyle=orthogonalEdgeStyle;rounded=0;orthogonalLoop=1;jettySize=auto;html=1;entryX=0.5;entryY=0;entryDx=0;entryDy=0;" edge="1" parent="1" source="X465O4fzRtTwufC8qBGV-2" target="X465O4fzRtTwufC8qBGV-3">
          <mxGeometry relative="1" as="geometry" />
        </mxCell>
        <mxCell id="X465O4fzRtTwufC8qBGV-2" value="n = Введите число элементов ряда для суммы" style="shape=parallelogram;perimeter=parallelogramPerimeter;whiteSpace=wrap;html=1;fixedSize=1;" vertex="1" parent="1">
          <mxGeometry x="330" y="200" width="140" height="60" as="geometry" />
        </mxCell>
        <mxCell id="X465O4fzRtTwufC8qBGV-12" style="edgeStyle=orthogonalEdgeStyle;rounded=0;orthogonalLoop=1;jettySize=auto;html=1;entryX=0.5;entryY=0;entryDx=0;entryDy=0;" edge="1" parent="1" source="X465O4fzRtTwufC8qBGV-3" target="X465O4fzRtTwufC8qBGV-4">
          <mxGeometry relative="1" as="geometry" />
        </mxCell>
        <mxCell id="X465O4fzRtTwufC8qBGV-3" value="i = 0" style="rounded=0;whiteSpace=wrap;html=1;" vertex="1" parent="1">
          <mxGeometry x="340" y="300" width="120" height="60" as="geometry" />
        </mxCell>
        <mxCell id="X465O4fzRtTwufC8qBGV-13" style="edgeStyle=orthogonalEdgeStyle;rounded=0;orthogonalLoop=1;jettySize=auto;html=1;entryX=0.5;entryY=0;entryDx=0;entryDy=0;" edge="1" parent="1" source="X465O4fzRtTwufC8qBGV-4" target="X465O4fzRtTwufC8qBGV-5">
          <mxGeometry relative="1" as="geometry" />
        </mxCell>
        <mxCell id="X465O4fzRtTwufC8qBGV-4" value="seq = 1" style="rounded=0;whiteSpace=wrap;html=1;" vertex="1" parent="1">
          <mxGeometry x="340" y="400" width="120" height="60" as="geometry" />
        </mxCell>
        <mxCell id="X465O4fzRtTwufC8qBGV-14" style="edgeStyle=orthogonalEdgeStyle;rounded=0;orthogonalLoop=1;jettySize=auto;html=1;entryX=0.5;entryY=0;entryDx=0;entryDy=0;" edge="1" parent="1" source="X465O4fzRtTwufC8qBGV-5" target="X465O4fzRtTwufC8qBGV-6">
          <mxGeometry relative="1" as="geometry" />
        </mxCell>
        <mxCell id="X465O4fzRtTwufC8qBGV-5" value="i &amp;lt; n" style="rhombus;whiteSpace=wrap;html=1;" vertex="1" parent="1">
          <mxGeometry x="360" y="505" width="80" height="80" as="geometry" />
        </mxCell>
        <mxCell id="X465O4fzRtTwufC8qBGV-15" style="edgeStyle=orthogonalEdgeStyle;rounded=0;orthogonalLoop=1;jettySize=auto;html=1;entryX=0.5;entryY=0;entryDx=0;entryDy=0;" edge="1" parent="1" source="X465O4fzRtTwufC8qBGV-6" target="X465O4fzRtTwufC8qBGV-7">
          <mxGeometry relative="1" as="geometry" />
        </mxCell>
        <mxCell id="X465O4fzRtTwufC8qBGV-6" value="s = seq / -2" style="rounded=0;whiteSpace=wrap;html=1;" vertex="1" parent="1">
          <mxGeometry x="340" y="620" width="120" height="60" as="geometry" />
        </mxCell>
        <mxCell id="X465O4fzRtTwufC8qBGV-16" style="edgeStyle=orthogonalEdgeStyle;rounded=0;orthogonalLoop=1;jettySize=auto;html=1;entryX=0.5;entryY=0;entryDx=0;entryDy=0;" edge="1" parent="1" source="X465O4fzRtTwufC8qBGV-7" target="X465O4fzRtTwufC8qBGV-8">
          <mxGeometry relative="1" as="geometry" />
        </mxCell>
        <mxCell id="X465O4fzRtTwufC8qBGV-7" value="seq += s" style="rounded=0;whiteSpace=wrap;html=1;" vertex="1" parent="1">
          <mxGeometry x="340" y="720" width="120" height="60" as="geometry" />
        </mxCell>
        <mxCell id="X465O4fzRtTwufC8qBGV-17" style="edgeStyle=orthogonalEdgeStyle;rounded=0;orthogonalLoop=1;jettySize=auto;html=1;entryX=0.5;entryY=0;entryDx=0;entryDy=0;" edge="1" parent="1" source="X465O4fzRtTwufC8qBGV-8" target="X465O4fzRtTwufC8qBGV-9">
          <mxGeometry relative="1" as="geometry" />
        </mxCell>
        <mxCell id="X465O4fzRtTwufC8qBGV-18" style="edgeStyle=orthogonalEdgeStyle;rounded=0;orthogonalLoop=1;jettySize=auto;html=1;entryX=0;entryY=0.5;entryDx=0;entryDy=0;" edge="1" parent="1" source="X465O4fzRtTwufC8qBGV-8" target="X465O4fzRtTwufC8qBGV-5">
          <mxGeometry relative="1" as="geometry">
            <Array as="points">
              <mxPoint x="320" y="850" />
              <mxPoint x="320" y="545" />
            </Array>
          </mxGeometry>
        </mxCell>
        <mxCell id="X465O4fzRtTwufC8qBGV-8" value="i += 1" style="rounded=0;whiteSpace=wrap;html=1;" vertex="1" parent="1">
          <mxGeometry x="340" y="820" width="120" height="60" as="geometry" />
        </mxCell>
        <mxCell id="X465O4fzRtTwufC8qBGV-9" value="Вывод: Сумма заданного количества элементов: seq" style="shape=parallelogram;perimeter=parallelogramPerimeter;whiteSpace=wrap;html=1;fixedSize=1;" vertex="1" parent="1">
          <mxGeometry x="305" y="930" width="190" height="60" as="geometry" />
        </mxCell>
      </root>
    </mxGraphModel>
  </diagram>
</mxfile>
